<svg xmlns="http://www.w3.org/2000/svg" xmlns:xlink="http://www.w3.org/1999/xlink" width="1800" zoomAndPan="magnify" viewBox="0 0 1350 1349.999938" height="1800" preserveAspectRatio="xMidYMid meet" version="1.0"><defs><filter x="0%" y="0%" width="100%" height="100%" id="1f2a3c1a1d"><feColorMatrix values="0 0 0 0 1 0 0 0 0 1 0 0 0 0 1 0 0 0 1 0" color-interpolation-filters="sRGB"/></filter><mask id="4b751f00f1"><g filter="url(#1f2a3c1a1d)"><rect x="-135" width="1620" fill="#000000" y="-134.999994" height="1619.999926" fill-opacity="0.97"/></g></mask><clipPath id="f5a44dea3c"><path d="M 0.121094 2 L 121 2 L 121 123 L 0.121094 123 Z M 0.121094 2 " clip-rule="nonzero"/></clipPath><clipPath id="12226fd95b"><rect x="0" width="122" y="0" height="124"/></clipPath><clipPath id="8f654b6a2f"><path d="M 318 414 L 1138.878906 414 L 1138.878906 1030 L 318 1030 Z M 318 414 " clip-rule="nonzero"/></clipPath><clipPath id="f2e5940e25"><path d="M 211.128906 320 L 1032 320 L 1032 936 L 211.128906 936 Z M 211.128906 320 " clip-rule="nonzero"/></clipPath></defs><rect x="-135" width="1620" fill="#ffffff" y="-134.999994" height="1619.999926" fill-opacity="1"/><rect x="-135" width="1620" fill="#d9d9d9" y="-134.999994" height="1619.999926" fill-opacity="1"/><path fill="#ffffff" d="M 407.414062 956.691406 L 1050.144531 956.691406 C 1050.144531 956.691406 871.816406 593.800781 836.605469 586.828125 C 801.390625 579.855469 647.464844 828.789062 647.464844 828.789062 C 647.464844 828.789062 563.199219 670.027344 529.027344 674.03125 C 494.851562 678.03125 407.429688 956.699219 407.429688 956.699219 Z M 407.414062 956.691406 " fill-opacity="1" fill-rule="nonzero"/><g mask="url(#4b751f00f1)"><g transform="matrix(1, 0, 0, 1, 549, 485)"><g clip-path="url(#12226fd95b)"><g clip-path="url(#f5a44dea3c)"><path fill="#ffffff" d="M 120.566406 62.699219 C 120.566406 64.664062 120.46875 66.625 120.277344 68.582031 C 120.085938 70.539062 119.796875 72.480469 119.414062 74.40625 C 119.03125 76.335938 118.554688 78.238281 117.984375 80.117188 C 117.414062 82 116.75 83.847656 116 85.664062 C 115.246094 87.480469 114.40625 89.253906 113.480469 90.988281 C 112.554688 92.71875 111.546875 94.402344 110.453125 96.039062 C 109.363281 97.671875 108.191406 99.25 106.945312 100.769531 C 105.699219 102.289062 104.378906 103.742188 102.992188 105.132812 C 101.601562 106.519531 100.148438 107.839844 98.628906 109.085938 C 97.109375 110.332031 95.53125 111.503906 93.898438 112.59375 C 92.261719 113.6875 90.578125 114.695312 88.847656 115.621094 C 87.113281 116.546875 85.339844 117.386719 83.523438 118.140625 C 81.707031 118.890625 79.859375 119.550781 77.976562 120.125 C 76.097656 120.695312 74.191406 121.171875 72.265625 121.554688 C 70.339844 121.9375 68.398438 122.226562 66.441406 122.417969 C 64.484375 122.609375 62.523438 122.707031 60.558594 122.707031 C 58.59375 122.707031 56.632812 122.609375 54.675781 122.417969 C 52.722656 122.226562 50.78125 121.9375 48.851562 121.554688 C 46.925781 121.171875 45.019531 120.695312 43.140625 120.125 C 41.257812 119.550781 39.410156 118.890625 37.59375 118.140625 C 35.777344 117.386719 34.003906 116.546875 32.269531 115.621094 C 30.539062 114.695312 28.855469 113.6875 27.21875 112.59375 C 25.585938 111.503906 24.007812 110.332031 22.492188 109.085938 C 20.972656 107.839844 19.515625 106.519531 18.128906 105.132812 C 16.738281 103.742188 15.417969 102.289062 14.171875 100.769531 C 12.925781 99.25 11.757812 97.671875 10.664062 96.039062 C 9.574219 94.402344 8.5625 92.71875 7.636719 90.988281 C 6.710938 89.253906 5.871094 87.480469 5.117188 85.664062 C 4.367188 83.847656 3.707031 82 3.136719 80.117188 C 2.566406 78.238281 2.085938 76.335938 1.703125 74.40625 C 1.320312 72.480469 1.03125 70.539062 0.839844 68.582031 C 0.648438 66.625 0.550781 64.664062 0.550781 62.699219 C 0.550781 60.734375 0.648438 58.773438 0.839844 56.816406 C 1.03125 54.863281 1.320312 52.921875 1.703125 50.992188 C 2.085938 49.066406 2.566406 47.160156 3.136719 45.28125 C 3.707031 43.398438 4.367188 41.550781 5.117188 39.734375 C 5.871094 37.917969 6.710938 36.144531 7.636719 34.414062 C 8.5625 32.679688 9.574219 30.996094 10.664062 29.359375 C 11.757812 27.726562 12.925781 26.148438 14.171875 24.632812 C 15.417969 23.113281 16.738281 21.65625 18.128906 20.269531 C 19.515625 18.878906 20.972656 17.558594 22.492188 16.3125 C 24.007812 15.066406 25.585938 13.898438 27.21875 12.804688 C 28.855469 11.714844 30.539062 10.703125 32.269531 9.777344 C 34.003906 8.851562 35.777344 8.011719 37.59375 7.257812 C 39.410156 6.507812 41.257812 5.847656 43.140625 5.277344 C 45.019531 4.707031 46.925781 4.226562 48.851562 3.84375 C 50.78125 3.460938 52.722656 3.171875 54.675781 2.980469 C 56.632812 2.789062 58.59375 2.691406 60.558594 2.691406 C 62.523438 2.691406 64.484375 2.789062 66.441406 2.980469 C 68.398438 3.171875 70.339844 3.460938 72.265625 3.84375 C 74.191406 4.226562 76.097656 4.707031 77.976562 5.277344 C 79.859375 5.847656 81.707031 6.507812 83.523438 7.257812 C 85.339844 8.011719 87.113281 8.851562 88.847656 9.777344 C 90.578125 10.703125 92.261719 11.714844 93.898438 12.804688 C 95.53125 13.898438 97.109375 15.066406 98.628906 16.3125 C 100.148438 17.558594 101.601562 18.878906 102.992188 20.269531 C 104.378906 21.65625 105.699219 23.113281 106.945312 24.632812 C 108.191406 26.148438 109.363281 27.726562 110.453125 29.359375 C 111.546875 30.996094 112.554688 32.679688 113.480469 34.414062 C 114.40625 36.144531 115.246094 37.917969 116 39.734375 C 116.75 41.550781 117.414062 43.398438 117.984375 45.28125 C 118.554688 47.160156 119.03125 49.066406 119.414062 50.992188 C 119.796875 52.921875 120.085938 54.863281 120.277344 56.816406 C 120.46875 58.773438 120.566406 60.734375 120.566406 62.699219 Z M 120.566406 62.699219 " fill-opacity="1" fill-rule="nonzero"/></g></g></g></g><g clip-path="url(#8f654b6a2f)"><path fill="#ffffff" d="M 318.636719 414.59375 L 318.636719 1029.804688 L 1138.917969 1029.804688 L 1138.917969 414.59375 Z M 369.90625 455.609375 L 1087.652344 455.609375 L 1087.652344 988.792969 L 369.90625 988.792969 Z M 369.90625 455.609375 " fill-opacity="1" fill-rule="nonzero"/></g><g clip-path="url(#f2e5940e25)"><path fill="#ffffff" d="M 211.128906 320.226562 L 211.128906 935.4375 L 293.15625 935.4375 L 293.15625 894.425781 L 262.394531 894.425781 L 262.394531 361.242188 L 980.140625 361.242188 L 980.140625 392.75 L 1031.410156 392.75 L 1031.410156 320.226562 Z M 211.128906 320.226562 " fill-opacity="1" fill-rule="nonzero"/></g><path stroke-linecap="butt" transform="matrix(0.542352, -0.518029, 0.518029, 0.542352, 191.701421, 1082.161181)" fill="none" stroke-linejoin="miter" d="M 0.000753128 37.50188 L 1710.595809 37.498077 " stroke="#ffffff" stroke-width="75" stroke-opacity="1" stroke-miterlimit="4"/></svg>